<?xml version="1.0" encoding="utf-8"?>
<!-- Generator: Adobe Illustrator 16.0.4, SVG Export Plug-In . SVG Version: 6.00 Build 0)  -->
<!DOCTYPE svg PUBLIC "-//W3C//DTD SVG 1.1//EN" "http://www.w3.org/Graphics/SVG/1.1/DTD/svg11.dtd">
<svg version="1.1" id="Layer_1" xmlns="http://www.w3.org/2000/svg" xmlns:xlink="http://www.w3.org/1999/xlink" x="0px" y="0px"
	 width="57px" height="44px" viewBox="7.763 6.5 57 44" enable-background="new 7.763 6.5 57 44" xml:space="preserve">
<g id="Captions">
</g>
<g id="Your_Icon">
	<path d="M37.966,19.033c-6.251,0-11.316,5.066-11.316,11.316c0,6.25,5.064,11.315,11.316,11.315c6.25,0,11.316-5.065,11.316-11.315
		C49.283,24.099,44.216,19.033,37.966,19.033z"/>
	<path d="M59.75,10.5h-7.627c-0.457-3-2.357-4-4.635-4H26.133c-2.276,0-4.178,1-4.633,4h-7.363c-3.169,0-6.374,2.38-6.374,5.548
		v28.714c0,3.17,3.205,5.738,6.374,5.738H59.75c3.17,0,5.014-2.568,5.014-5.738V16.048C64.764,12.88,62.92,10.5,59.75,10.5z
		 M15.655,21.167c-1.87,0-3.385-1.516-3.385-3.385c0-1.872,1.515-3.386,3.385-3.386s3.386,1.515,3.386,3.386
		C19.041,19.651,17.525,21.167,15.655,21.167z M37.964,44.725c-7.939,0-14.374-6.209-14.374-14.146
		C23.591,23.106,29.286,16.5,36.574,16.5h2.785c7.285,0,12.981,6.606,12.981,14.077C52.34,38.516,45.904,44.725,37.964,44.725z"/>
</g>
</svg>
